/* XPM */
static char * test2_xpm[] = {
"21 21 3 1",
" 	c None",
".	c #000000",
"+	c #FFFFFF",
"......+.......+......",
"......+.......+......",
"......+.......+......",
"...+++++++++++++++...",
"...+......+......+...",
"...+......+......+...",
"++++......+......++++",
"...+...+++++++...+...",
"...+...+.....+...+...",
"...+...+.....+...+...",
"...+++++.....+++++...",
"...+...+.....+...+...",
"...+...+.....+...+...",
"...+...+++++++...+...",
"++++......+......++++",
"...+......+......+...",
"...+......+......+...",
"...+++++++++++++++...",
"......+.......+......",
"......+.......+......",
"......+.......+......"};
