/* XPM */
static char * test2_xpm[] = {
"22 22 3 1",
" 	c None",
".	c #000000",
"+	c #FFFFFF",
"......++......++......",
"......++......++......",
"..++++++++++++++++++..",
"..++++++++++++++++++..",
"..++......++......++..",
"..++......++......++..",
"++++..++++++++++..++++",
"++++..++++++++++..++++",
"..++..++......++..++..",
"..++..++......++..++..",
"..++++++......++++++..",
"..++++++......++++++..",
"..++..++......++..++..",
"..++..++......++..++..",
"++++..++++++++++..++++",
"++++..++++++++++..++++",
"..++......++......++..",
"..++......++......++..",
"..++++++++++++++++++..",
"..++++++++++++++++++..",
"......++......++......",
"......++......++......"};
